<?xml version="1.0" encoding="UTF-8" standalone="no"?>
<!DOCTYPE svg PUBLIC "-//W3C//DTD SVG 1.1//EN"
 "http://www.w3.org/Graphics/SVG/1.1/DTD/svg11.dtd">
<!-- Generated by graphviz version 2.43.0 (0)
 -->
<!-- Title: %3 Pages: 1 -->
<svg width="1333pt" height="404pt"
 viewBox="0.00 0.00 1333.18 404.00" xmlns="http://www.w3.org/2000/svg" xmlns:xlink="http://www.w3.org/1999/xlink">
<g id="graph0" class="graph" transform="scale(1 1) rotate(0) translate(4 400)">
<title>%3</title>
<polygon fill="white" stroke="transparent" points="-4,4 -4,-400 1329.18,-400 1329.18,4 -4,4"/>
<!-- [root] module.servers.aws_eip.ip (expand) -->
<g id="node1" class="node">
<title>[root] module.servers.aws_eip.ip (expand)</title>
<polygon fill="none" stroke="black" points="782.13,-252 576.13,-252 576.13,-216 782.13,-216 782.13,-252"/>
<text text-anchor="middle" x="679.13" y="-230.3" font-family="Times,serif" font-size="14.00">module.servers.aws_eip.ip</text>
</g>
<!-- [root] module.servers.aws_instance.web (expand) -->
<g id="node2" class="node">
<title>[root] module.servers.aws_instance.web (expand)</title>
<polygon fill="none" stroke="black" points="759.13,-180 499.13,-180 499.13,-144 759.13,-144 759.13,-180"/>
<text text-anchor="middle" x="629.13" y="-158.3" font-family="Times,serif" font-size="14.00">module.servers.aws_instance.web</text>
</g>
<!-- [root] module.servers.aws_eip.ip (expand)&#45;&gt;[root] module.servers.aws_instance.web (expand) -->
<g id="edge5" class="edge">
<title>[root] module.servers.aws_eip.ip (expand)&#45;&gt;[root] module.servers.aws_instance.web (expand)</title>
<path fill="none" stroke="black" d="M666.77,-215.7C660.9,-207.47 653.76,-197.48 647.29,-188.42"/>
<polygon fill="black" stroke="black" points="650.01,-186.21 641.35,-180.1 644.31,-190.28 650.01,-186.21"/>
</g>
<!-- [root] provider[&quot;registry.terraform.io/hashicorp/aws&quot;] -->
<g id="node4" class="node">
<title>[root] provider[&quot;registry.terraform.io/hashicorp/aws&quot;]</title>
<polygon fill="none" stroke="black" points="983.13,-108 657.87,-90 983.13,-72 1308.39,-90 983.13,-108"/>
<text text-anchor="middle" x="983.13" y="-86.3" font-family="Times,serif" font-size="14.00">provider[&quot;registry.terraform.io/hashicorp/aws&quot;]</text>
</g>
<!-- [root] module.servers.aws_instance.web (expand)&#45;&gt;[root] provider[&quot;registry.terraform.io/hashicorp/aws&quot;] -->
<g id="edge7" class="edge">
<title>[root] module.servers.aws_instance.web (expand)&#45;&gt;[root] provider[&quot;registry.terraform.io/hashicorp/aws&quot;]</title>
<path fill="none" stroke="black" d="M715.27,-143.97C773.48,-132.46 849.68,-117.39 905.91,-106.27"/>
<polygon fill="black" stroke="black" points="906.69,-109.68 915.82,-104.31 905.33,-102.82 906.69,-109.68"/>
</g>
<!-- [root] module.servers.var.image_id (expand) -->
<g id="node8" class="node">
<title>[root] module.servers.var.image_id (expand)</title>
<ellipse fill="none" stroke="black" cx="424.13" cy="-90" rx="215.56" ry="18"/>
<text text-anchor="middle" x="424.13" y="-86.3" font-family="Times,serif" font-size="14.00">[root] module.servers.var.image_id (expand)</text>
</g>
<!-- [root] module.servers.aws_instance.web (expand)&#45;&gt;[root] module.servers.var.image_id (expand) -->
<g id="edge6" class="edge">
<title>[root] module.servers.aws_instance.web (expand)&#45;&gt;[root] module.servers.var.image_id (expand)</title>
<path fill="none" stroke="black" d="M579.24,-143.97C550.05,-134 513.04,-121.36 482.49,-110.93"/>
<polygon fill="black" stroke="black" points="483.42,-107.55 472.82,-107.63 481.15,-114.17 483.42,-107.55"/>
</g>
<!-- [root] module.servers.data.aws_ami.ubuntu (expand) -->
<g id="node3" class="node">
<title>[root] module.servers.data.aws_ami.ubuntu (expand)</title>
<polygon fill="none" stroke="black" points="1125.13,-180 841.13,-180 841.13,-144 1125.13,-144 1125.13,-180"/>
<text text-anchor="middle" x="983.13" y="-158.3" font-family="Times,serif" font-size="14.00">module.servers.data.aws_ami.ubuntu</text>
</g>
<!-- [root] module.servers.data.aws_ami.ubuntu (expand)&#45;&gt;[root] provider[&quot;registry.terraform.io/hashicorp/aws&quot;] -->
<g id="edge9" class="edge">
<title>[root] module.servers.data.aws_ami.ubuntu (expand)&#45;&gt;[root] provider[&quot;registry.terraform.io/hashicorp/aws&quot;]</title>
<path fill="none" stroke="black" d="M983.13,-143.7C983.13,-135.98 983.13,-126.71 983.13,-118.11"/>
<polygon fill="black" stroke="black" points="986.63,-118.1 983.13,-108.1 979.63,-118.1 986.63,-118.1"/>
</g>
<!-- [root] module.servers (expand) -->
<g id="node9" class="node">
<title>[root] module.servers (expand)</title>
<ellipse fill="none" stroke="black" cx="424.13" cy="-18" rx="154.87" ry="18"/>
<text text-anchor="middle" x="424.13" y="-14.3" font-family="Times,serif" font-size="14.00">[root] module.servers (expand)</text>
</g>
<!-- [root] module.servers.data.aws_ami.ubuntu (expand)&#45;&gt;[root] module.servers (expand) -->
<g id="edge8" class="edge">
<title>[root] module.servers.data.aws_ami.ubuntu (expand)&#45;&gt;[root] module.servers (expand)</title>
<path fill="none" stroke="black" d="M1125.5,-156.42C1204.62,-150.54 1292.06,-137.36 1317.13,-108 1327.52,-95.83 1328.1,-83.64 1317.13,-72 1292.42,-45.78 834.39,-29.73 584.17,-22.88"/>
<polygon fill="black" stroke="black" points="583.98,-19.37 573.88,-22.6 583.79,-26.37 583.98,-19.37"/>
</g>
<!-- [root] module.servers (close) -->
<g id="node5" class="node">
<title>[root] module.servers (close)</title>
<ellipse fill="none" stroke="black" cx="529.13" cy="-306" rx="144.07" ry="18"/>
<text text-anchor="middle" x="529.13" y="-302.3" font-family="Times,serif" font-size="14.00">[root] module.servers (close)</text>
</g>
<!-- [root] module.servers (close)&#45;&gt;[root] module.servers.aws_eip.ip (expand) -->
<g id="edge1" class="edge">
<title>[root] module.servers (close)&#45;&gt;[root] module.servers.aws_eip.ip (expand)</title>
<path fill="none" stroke="black" d="M564.68,-288.41C585.22,-278.82 611.28,-266.66 633.35,-256.36"/>
<polygon fill="black" stroke="black" points="634.95,-259.48 642.53,-252.08 631.99,-253.14 634.95,-259.48"/>
</g>
<!-- [root] module.servers (close)&#45;&gt;[root] module.servers.data.aws_ami.ubuntu (expand) -->
<g id="edge2" class="edge">
<title>[root] module.servers (close)&#45;&gt;[root] module.servers.data.aws_ami.ubuntu (expand)</title>
<path fill="none" stroke="black" d="M531.33,-287.81C534.95,-267.21 544.21,-233.32 567.13,-216 588.36,-199.96 720.99,-184.96 830.88,-175.04"/>
<polygon fill="black" stroke="black" points="831.45,-178.5 841.1,-174.12 830.83,-171.53 831.45,-178.5"/>
</g>
<!-- [root] module.servers.output.ip_address (expand) -->
<g id="node6" class="node">
<title>[root] module.servers.output.ip_address (expand)</title>
<ellipse fill="none" stroke="black" cx="241.13" cy="-234" rx="241.26" ry="18"/>
<text text-anchor="middle" x="241.13" y="-230.3" font-family="Times,serif" font-size="14.00">[root] module.servers.output.ip_address (expand)</text>
</g>
<!-- [root] module.servers (close)&#45;&gt;[root] module.servers.output.ip_address (expand) -->
<g id="edge3" class="edge">
<title>[root] module.servers (close)&#45;&gt;[root] module.servers.output.ip_address (expand)</title>
<path fill="none" stroke="black" d="M466.28,-289.72C422.8,-279.16 364.66,-265.02 318.35,-253.77"/>
<polygon fill="black" stroke="black" points="318.9,-250.3 308.36,-251.34 317.25,-257.1 318.9,-250.3"/>
</g>
<!-- [root] module.servers.var.servers (expand) -->
<g id="node7" class="node">
<title>[root] module.servers.var.servers (expand)</title>
<ellipse fill="none" stroke="black" cx="241.13" cy="-162" rx="209.06" ry="18"/>
<text text-anchor="middle" x="241.13" y="-158.3" font-family="Times,serif" font-size="14.00">[root] module.servers.var.servers (expand)</text>
</g>
<!-- [root] module.servers (close)&#45;&gt;[root] module.servers.var.servers (expand) -->
<g id="edge4" class="edge">
<title>[root] module.servers (close)&#45;&gt;[root] module.servers.var.servers (expand)</title>
<path fill="none" stroke="black" d="M526.61,-287.76C522.71,-267.43 513.19,-234.14 491.13,-216 471.37,-199.75 418.68,-187.39 366.74,-178.71"/>
<polygon fill="black" stroke="black" points="367.15,-175.23 356.72,-177.07 366.03,-182.14 367.15,-175.23"/>
</g>
<!-- [root] module.servers.output.ip_address (expand)&#45;&gt;[root] module.servers.aws_instance.web (expand) -->
<g id="edge10" class="edge">
<title>[root] module.servers.output.ip_address (expand)&#45;&gt;[root] module.servers.aws_instance.web (expand)</title>
<path fill="none" stroke="black" d="M328.69,-217.2C386.8,-206.72 463.38,-192.9 524.68,-181.84"/>
<polygon fill="black" stroke="black" points="525.55,-185.24 534.77,-180.02 524.31,-178.35 525.55,-185.24"/>
</g>
<!-- [root] module.servers.var.servers (expand)&#45;&gt;[root] module.servers (expand) -->
<g id="edge12" class="edge">
<title>[root] module.servers.var.servers (expand)&#45;&gt;[root] module.servers (expand)</title>
<path fill="none" stroke="black" d="M222.68,-143.98C204.41,-125.06 181.52,-94.24 199.13,-72 213.55,-53.79 260.94,-41.21 308.53,-32.89"/>
<polygon fill="black" stroke="black" points="309.4,-36.3 318.68,-31.18 308.23,-29.39 309.4,-36.3"/>
</g>
<!-- [root] module.servers.var.image_id (expand)&#45;&gt;[root] module.servers (expand) -->
<g id="edge11" class="edge">
<title>[root] module.servers.var.image_id (expand)&#45;&gt;[root] module.servers (expand)</title>
<path fill="none" stroke="black" d="M424.13,-71.7C424.13,-63.98 424.13,-54.71 424.13,-46.11"/>
<polygon fill="black" stroke="black" points="427.63,-46.1 424.13,-36.1 420.63,-46.1 427.63,-46.1"/>
</g>
<!-- [root] output.ip_address (expand) -->
<g id="node10" class="node">
<title>[root] output.ip_address (expand)</title>
<ellipse fill="none" stroke="black" cx="200.13" cy="-306" rx="166.27" ry="18"/>
<text text-anchor="middle" x="200.13" y="-302.3" font-family="Times,serif" font-size="14.00">[root] output.ip_address (expand)</text>
</g>
<!-- [root] output.ip_address (expand)&#45;&gt;[root] module.servers.output.ip_address (expand) -->
<g id="edge13" class="edge">
<title>[root] output.ip_address (expand)&#45;&gt;[root] module.servers.output.ip_address (expand)</title>
<path fill="none" stroke="black" d="M210.26,-287.7C214.98,-279.64 220.69,-269.89 225.91,-260.98"/>
<polygon fill="black" stroke="black" points="229.08,-262.5 231.11,-252.1 223.04,-258.96 229.08,-262.5"/>
</g>
<!-- [root] provider[&quot;registry.terraform.io/hashicorp/aws&quot;] (close) -->
<g id="node11" class="node">
<title>[root] provider[&quot;registry.terraform.io/hashicorp/aws&quot;] (close)</title>
<ellipse fill="none" stroke="black" cx="983.13" cy="-306" rx="291.65" ry="18"/>
<text text-anchor="middle" x="983.13" y="-302.3" font-family="Times,serif" font-size="14.00">[root] provider[&quot;registry.terraform.io/hashicorp/aws&quot;] (close)</text>
</g>
<!-- [root] provider[&quot;registry.terraform.io/hashicorp/aws&quot;] (close)&#45;&gt;[root] module.servers.aws_eip.ip (expand) -->
<g id="edge14" class="edge">
<title>[root] provider[&quot;registry.terraform.io/hashicorp/aws&quot;] (close)&#45;&gt;[root] module.servers.aws_eip.ip (expand)</title>
<path fill="none" stroke="black" d="M911.47,-288.5C866.98,-278.25 809.59,-265.04 762.99,-254.31"/>
<polygon fill="black" stroke="black" points="763.75,-250.89 753.21,-252.06 762.17,-257.71 763.75,-250.89"/>
</g>
<!-- [root] provider[&quot;registry.terraform.io/hashicorp/aws&quot;] (close)&#45;&gt;[root] module.servers.data.aws_ami.ubuntu (expand) -->
<g id="edge15" class="edge">
<title>[root] provider[&quot;registry.terraform.io/hashicorp/aws&quot;] (close)&#45;&gt;[root] module.servers.data.aws_ami.ubuntu (expand)</title>
<path fill="none" stroke="black" d="M983.13,-287.87C983.13,-263.67 983.13,-219.21 983.13,-190.39"/>
<polygon fill="black" stroke="black" points="986.63,-190.19 983.13,-180.19 979.63,-190.19 986.63,-190.19"/>
</g>
<!-- [root] root -->
<g id="node12" class="node">
<title>[root] root</title>
<ellipse fill="none" stroke="black" cx="529.13" cy="-378" rx="58.49" ry="18"/>
<text text-anchor="middle" x="529.13" y="-374.3" font-family="Times,serif" font-size="14.00">[root] root</text>
</g>
<!-- [root] root&#45;&gt;[root] module.servers (close) -->
<g id="edge16" class="edge">
<title>[root] root&#45;&gt;[root] module.servers (close)</title>
<path fill="none" stroke="black" d="M529.13,-359.7C529.13,-351.98 529.13,-342.71 529.13,-334.11"/>
<polygon fill="black" stroke="black" points="532.63,-334.1 529.13,-324.1 525.63,-334.1 532.63,-334.1"/>
</g>
<!-- [root] root&#45;&gt;[root] output.ip_address (expand) -->
<g id="edge17" class="edge">
<title>[root] root&#45;&gt;[root] output.ip_address (expand)</title>
<path fill="none" stroke="black" d="M482.34,-367.05C430.22,-355.96 345,-337.82 281.82,-324.38"/>
<polygon fill="black" stroke="black" points="282.39,-320.92 271.88,-322.27 280.93,-327.77 282.39,-320.92"/>
</g>
<!-- [root] root&#45;&gt;[root] provider[&quot;registry.terraform.io/hashicorp/aws&quot;] (close) -->
<g id="edge18" class="edge">
<title>[root] root&#45;&gt;[root] provider[&quot;registry.terraform.io/hashicorp/aws&quot;] (close)</title>
<path fill="none" stroke="black" d="M580.33,-369.11C650.25,-358.33 777.51,-338.7 870.32,-324.39"/>
<polygon fill="black" stroke="black" points="870.98,-327.83 880.33,-322.85 869.91,-320.92 870.98,-327.83"/>
</g>
</g>
</svg>
